# xmcd
#
# Track frame offsets: 
#        150
#        12200
#        25850
#        39597
#        54940
#        68530
#        82930
#        96017
#        108157
#        120232
#        133717
#        143650
#        156940
#        167957
#        181922
#        192812
#        207997
#        220325
#        233590
#        247925
#        259970
#        272540
#        286990
#        299972
#        314582
#
# Disc length: 4351 seconds
#
# Revision: 4
# Processed by: cddbd v1.5.2PL0 Copyright (c) Steve Scherf et al.
# Submitted via: ExactAudioCopy v0.99pb4
#
DISCID=6010fd19
DTITLE=Various Artist - The Ultimate Blues Collection - Preaching The Blues
DYEAR=1996
DGENRE=Blues
TTITLE0=Little Buddy Doyle - Sweet Man Blues
TTITLE1=Ann Cook - Mama Cookie Blues
TTITLE2=Bumble Bee Slim - Feather Bed Blues
TTITLE3=Bessie Tucker - Fort Worth And Denver Blues
TTITLE4=Big Bill Broonzy - I'm Woke Up Now
TTITLE5=Sonny Boy Williamson - You're An Old Lady
TTITLE6=Washboard Sam - She Fooled Me
TTITLE7=Ida Cox - Chicago Bound Blues
TTITLE8=Robert Johnson - Cross Road Blues
TTITLE9=Bessie Smith - Reckless Blues
TTITLE10=Leadbelly - How Long
TTITLE11=Bessie Jackson - Groceries On The Shelf
TTITLE12=Cripple Clarence Lofton - Pitchin' Boogie
TTITLE13=Joohnie Temple - Lead Pencil Blues
TTITLE14=Memphis Minnie - Pigmeat On The Line
TTITLE15=Muddy Waters - 32-20 Blues
TTITLE16=Pinetop and Lindberg - East Chicago Blues
TTITLE17=Willie Brown - Future Blues
TTITLE18=Bukka White - Panama Limited Blues
TTITLE19=Leroy Carr - Barrelhouse Woman No 2
TTITLE20=Black Ivory King - The Flying Crow
TTITLE21=Big Joe Williams - Break 'Em On Down
TTITLE22=Bessie Smith - Preaching The Blues
TTITLE23=Leadbelly - In New Orleahs
TTITLE24=Robert Johnson - Hell Hound On My Trail
EXTD=ID3G:   0
EXTT0=
EXTT1=
EXTT2=
EXTT3=
EXTT4=
EXTT5=
EXTT6=
EXTT7=
EXTT8=
EXTT9=
EXTT10=
EXTT11=
EXTT12=
EXTT13=
EXTT14=
EXTT15=
EXTT16=
EXTT17=
EXTT18=
EXTT19=
EXTT20=
EXTT21=
EXTT22=
EXTT23=
EXTT24=
PLAYORDER=
